# xmcd
#
# Track frame offsets: 
#        150
#        22802
#        47895
#
# Disc length: 1113 seconds
#
# Revision: 1
# Processed by: cddbd v1.5.2PL0 Copyright (c) Steve Scherf et al.
# Submitted via: ExactAudioCopy v1.3
#
DISCID=1a045703
DTITLE=Various Artist - Heule Eule
DYEAR=2012
DGENRE=Hörbuch Kinder
TTITLE0=Paul Friester - Ursula Illert - Heule Eule
TTITLE1=Udo Weigelt - Santiago Ziesmer - Felix, der Sachensucher
TTITLE2=Regina Fackelmayer - Gabriele Blum - Ein Gute-Nacht-Kuss für di
TTITLE2=e Katze
EXTD=
EXTT0=
EXTT1=
EXTT2=
PLAYORDER=
